<svg width="580" height="580" xmlns="http://www.w3.org/2000/svg"><path d="M137.988 164.124a283.688 283.688 0 0 0 28.413 47.306 297.158 297.158 0 0 0-46.086-5.234 206.449 206.449 0 0 1-27.96-32.783 194.883 194.883 0 0 1-12.892-21.66 209.547 209.547 0 0 1 24.946 3.081 198.24 198.24 0 0 1 33.58 9.29zM94.102 308.648a288.383 288.383 0 0 0 53.428 12.892 292.555 292.555 0 0 0-36.48 28.819 208.423 208.423 0 0 1-43.118-3.49 197.932 197.932 0 0 1-24.108-6.434 205.661 205.661 0 0 1 19.35-15.225 201.313 201.313 0 0 1 30.724-17.06l.204.498zm70.487 133.197a289.349 289.349 0 0 0 47.242-28.41 293.033 293.033 0 0 0-5.483 46.4 203.323 203.323 0 0 1-32.786 27.958 206.662 206.662 0 0 1-21.661 12.891 206.2 206.2 0 0 1 2.764-25.058 203.382 203.382 0 0 1 9.924-33.78zm182.894 70.436a186.669 186.669 0 0 1-5.211 20.685 191.56 191.56 0 0 1-12.893-16.698 205.163 205.163 0 0 1-19.327-33.508 293.755 293.755 0 0 0 12.416-52.63 299.333 299.333 0 0 0 28.232 35.434 207.043 207.043 0 0 1-3.217 46.717zm155.185-87a205.098 205.098 0 0 1-25.785-2.968h-1.291a202.029 202.029 0 0 1-35.188-10.105 289.329 289.329 0 0 0-28.662-46.265 292.2 292.2 0 0 0 49.213 5.483 190.82 190.82 0 0 1 41.713 53.855zm40.15-187.637c-7.93 7.386-16.449 14.093-25.467 20.12a188.52 188.52 0 0 1-23.904 13.39 280.01 280.01 0 0 0-55.24-14.433 280.772 280.772 0 0 0 37.975-30.472 197.227 197.227 0 0 1 36.14 3.217h1.291a207.692 207.692 0 0 1 29.206 8.179zM428.035 83.126a208.582 208.582 0 0 1-2.697 21.206 196.83 196.83 0 0 1-8.202 29.816 282.718 282.718 0 0 0-47.99 28.75 307.894 307.894 0 0 0 4.623-38.674 203.562 203.562 0 0 1 35.913-30.2 187.082 187.082 0 0 1 18.353-10.898zm-168.33 66.248a283.058 283.058 0 0 0-30.406-38.674 204.87 204.87 0 0 1 3.466-42.911 180.995 180.995 0 0 1 6.458-24.356A210.268 210.268 0 0 1 254.63 63.28a201.648 201.648 0 0 1 18.353 33.373 288.896 288.896 0 0 0-13.277 52.721zm46.022-114.053a210.846 210.846 0 0 0-7.93 11.215 246.49 246.49 0 0 0-9.676 16.109c-3.036-5.483-6.435-10.694-9.788-15.86-3.353-5.165-6.82-9.538-10.559-14.183A229.032 229.032 0 0 1 285.492 0a225.33 225.33 0 0 1 20.234 35.32v.001zm39.495 77.188a285.414 285.414 0 0 0-27.122 36.409 283.682 283.682 0 0 0-14.116-52.268 197.357 197.357 0 0 1 17.854-34.143 189.891 189.891 0 0 1 12.621-17.4 188.541 188.541 0 0 1 5.868 20.48 204.3 204.3 0 0 1 4.894 46.922zm60.382-50.002a246.617 246.617 0 0 0-11.782 7.228v-.023a228.707 228.707 0 0 0-21.207 15.792 220.217 220.217 0 0 0-4.192-25.76c-.974-4.509-2.13-8.95-3.49-13.458l.024-.023c10.762-10.694 22.59-20.3 35.233-28.683a232.526 232.526 0 0 1 5.415 44.928zm57.935 55.489a198.395 198.395 0 0 0-12.439 3.285 178.753 178.753 0 0 0 2.515-11.668c.702-3.874 1.54-9.017 2.13-13.73a226.363 226.363 0 0 1 39.176-11.282 236.19 236.19 0 0 1-7.659 29.317 235.46 235.46 0 0 0-22.5 3.806l-1.223.272zm37.633 23.763a194.438 194.438 0 0 1-37.182 55.87 287.005 287.005 0 0 0-50.64 7.16 281.788 281.788 0 0 0 26.532-48.983 197.981 197.981 0 0 1 30.294-9.675h1.292a202.399 202.399 0 0 1 29.704-4.372zm66.891 28.095a242.046 242.046 0 0 1-27.122 36.998 212.48 212.48 0 0 0-22.091-5.483h-1.292a211.74 211.74 0 0 0-16.88-2.447c3.217-4.192 6.435-8.496 9.154-12.892h-.023a209.71 209.71 0 0 0 12.507-21.66 248.61 248.61 0 0 1 45.746 5.483h.001zm-29.118 159.68a191.654 191.654 0 0 1-24.947 7.545h-1.223a209.455 209.455 0 0 1-40.988 4.825 286.045 286.045 0 0 0-32.673-23.902c18.783-3.444 37.159-8.836 54.855-16.04a198.29 198.29 0 0 1 24.357 12.869 196.702 196.702 0 0 1 20.619 14.704v-.001zm-.273 30.612a229.857 229.857 0 0 1 29.274 35.299 233.385 233.385 0 0 1-45.111 6.457c-3.036-5.211-6.435-10.173-9.675-15.09a210.418 210.418 0 0 0-14.049-17.966 293.922 293.922 0 0 0 19.985-3.534h1.291c6.186-1.496 12.236-3.172 18.285-5.166zm-5.278-69.739c-2.38-1.427-4.758-2.9-7.228-4.191a247.03 247.03 0 0 0 7.024-4.509l.022.023c6.934-4.6 13.595-9.56 19.962-14.885A241.853 241.853 0 0 1 580 281.458a224.264 224.264 0 0 1-31.721 18.94c-4.759-3.534-9.789-6.887-14.887-9.991zM400.777 506.661c3.92 2.446 7.999 4.712 12.122 6.82v.022a229.953 229.953 0 0 1-4.056 45.108 231.816 231.816 0 0 1-36.094-27.391 177.532 177.532 0 0 0 3.036-13.526c1.609-8.519 2.764-17.128 3.399-25.783a232.745 232.745 0 0 0 21.593 14.75zm33.829-14.5a188.79 188.79 0 0 1-18.739-10.105 203.881 203.881 0 0 1-36.932-29.136 292.481 292.481 0 0 0-7.341-45.108 284.396 284.396 0 0 0 47.287 26.44 203.021 203.021 0 0 1 12.19 36.907 206.168 206.168 0 0 1 3.534 21.002zm66.768-3.602a226.205 226.205 0 0 1-39.515-10.105c-.77-4.645-1.54-9.153-2.583-13.594-1.36-6.117-3.036-12.19-4.894-18.17a182.251 182.251 0 0 0 15.86 3.602h1.292a250.172 250.172 0 0 0 18.874 2.65v-.022a228.777 228.777 0 0 1 10.966 35.638zm-289.68 31.766c1.292 5.664 2.765 11.351 4.645 17.083a233.79 233.79 0 0 1-35.437 28.615 240.559 240.559 0 0 1-6.457-45.108c5.211-2.968 10.128-6.05 15.09-9.335 6.435-4.26 12.303-8.836 18.172-13.797a216.2 216.2 0 0 0 3.987 22.542zm67.408-37.044c-4.645 11.985-10.469 23.472-17.334 34.347a202.223 202.223 0 0 1-14.818 20.232 193.468 193.468 0 0 1-7.093-24.106 204.519 204.519 0 0 1-4.826-42.662c10.854-12.235 20.642-25.398 29.184-39.354A297.882 297.882 0 0 0 279.1 483.28zm34.802 60.627A226.37 226.37 0 0 1 294.577 580c-7.115-10.218-13.368-21.002-18.76-32.217 3.602-4.713 6.955-9.606 10.127-14.5 3.15-4.894 6.435-10.694 9.336-16.245 3.149 5.415 6.435 10.694 10.128 15.723a282.858 282.858 0 0 0 8.496 11.147zM85.193 378.701a214.256 214.256 0 0 0-13.391 18.805c-3.036 4.757-5.936 9.855-8.633 15.089a237.367 237.367 0 0 1-45.112-4.645 234.48 234.48 0 0 1 27.054-36.408c5.8 1.676 11.465 2.968 17.197 4.055h.023a209.922 209.922 0 0 0 22.862 3.104zm44.866 76.351c-1.36 5.03-2.447 10.06-3.49 15.09-1.041 5.03-1.925 11.6-2.582 17.535l.023-.023a224.824 224.824 0 0 1-35.641 10.513 231.374 231.374 0 0 1 9.539-36.092c6.004-.838 11.736-1.926 17.333-3.104 5.597-1.132 9.924-2.424 14.818-3.92v.001zm39.037-82.923a286.2 286.2 0 0 0-26.872 48.077 203.017 203.017 0 0 1-33.24 10.694 200.768 200.768 0 0 1-24.629 3.784 193.106 193.106 0 0 1 11.805-21.705 200.525 200.525 0 0 1 27.122-33.894 283.93 283.93 0 0 0 45.814-6.955zM60.135 293.58a152.79 152.79 0 0 0-12.893 8.248c-4.056 2.9-9.335 6.434-13.98 10.444A234.731 234.731 0 0 1 0 294.418a234.563 234.563 0 0 1 32.22-18.76 310.48 310.48 0 0 0 14.5 10.128c4.85 3.15 8.837 5.347 13.414 7.794zm-17.537-77.528a232.993 232.993 0 0 1-28.662-35.616 236.684 236.684 0 0 1 45.112-6.457c2.968 5.211 6.05 10.24 9.29 15.021h-.023a220.908 220.908 0 0 0 13.867 18.238 199.295 199.295 0 0 0-22.5 3.807c-5.596 1.608-11.328 3.217-17.084 5.007zm103.888 46.534A289.765 289.765 0 0 0 93.4 277.538a203.542 203.542 0 0 1-31.065-16.064 188.902 188.902 0 0 1-20.301-14.885 212.172 212.172 0 0 1 24.085-7.023 206.836 206.836 0 0 1 42.869-4.826c11.714 10.309 24.267 19.598 37.498 27.845h.001zm-21.705-132.879c-4.962-1.291-9.856-2.447-14.819-3.353-4.962-.906-11.668-1.994-17.582-2.583l-.023.023a222.823 222.823 0 0 1-10.626-35.638 229.093 229.093 0 0 1 35.958 9.334c.838 5.936 1.926 11.781 3.15 17.536 1.223 5.732 2.447 9.788 3.942 14.681zm83.062 38.994c-15.203-10.49-31.358-19.53-48.284-26.938-4.418-10.694-7.953-21.75-10.49-33.056a200.618 200.618 0 0 1-3.875-24.877 211.288 211.288 0 0 1 22.046 11.985 203.202 203.202 0 0 1 33.693 26.939 288.764 288.764 0 0 0 6.91 45.947zm.569-123.591c-1.61 5.732-3.037 11.6-4.056 17.264a208.863 208.863 0 0 0-3.082 22.498 217.974 217.974 0 0 0-18.624-12.892 243.554 243.554 0 0 0-15.34-8.768 233.813 233.813 0 0 1 4.759-45.108 232.588 232.588 0 0 1 36.343 27.006z" fill="#F6F6F6" fill-rule="evenodd"/></svg>